<?xml version="1.0" encoding="UTF-8" standalone="no"?>
<svg width="19px" height="15px" viewBox="0 0 19 15" version="1.1" xmlns="http://www.w3.org/2000/svg" xmlns:xlink="http://www.w3.org/1999/xlink">
    <!-- Generator: Sketch 40.1 (33804) - http://www.bohemiancoding.com/sketch -->
    <title>BackArrow</title>
    <desc>Created with Sketch.</desc>
    <defs></defs>
    <g id="Mobile" stroke="none" stroke-width="1" fill="none" fill-rule="evenodd" fill-opacity="0.3">
        <g id="LOGIN" transform="translate(-15.000000, -272.000000)" fill="#000000">
            <g id="BackArrow" transform="translate(15.000000, 272.000000)">
                <g id="left-arrow">
                    <g id="Capa_1">
                        <g id="Group">
                            <path d="M1.41646513,7.59274931 L18.0404576,7.59274931 C18.3334483,7.59274931 18.5714286,7.41060748 18.5714286,7.18477002 C18.5714286,6.95939252 18.3334483,6.77633079 18.0404576,6.77633079 L1.41694042,6.77633079 L7.65087644,0.743572854 C7.81278028,0.587188462 7.81691987,0.328694259 7.66053548,0.166330463 C7.50369113,0.00442662122 7.24519693,0.000287034354 7.08329309,0.157131381 L0.12464756,6.89131931 C0.0450755015,6.96813164 0,7.07438104 0,7.18477002 C0,7.29561896 0.0450755015,7.40094845 0.12464756,7.47776078 L7.08329309,14.2128686 C7.16240519,14.289681 7.26497496,14.3278571 7.36708476,14.3278571 C7.47379412,14.3278571 7.58004351,14.2860013 7.66053548,14.2032096 C7.81691987,14.0408458 7.81278028,13.7828115 7.65087644,13.6259672 L1.41646513,7.59274931 Z" id="Combined-Shape"></path>
                        </g>
                    </g>
                </g>
            </g>
        </g>
    </g>
</svg>